<svg xmlns="http://www.w3.org/2000/svg" width="770" height="430" viewBox="0 0 770 430" role="img" aria-label="Sobreimpulso de fuerza vs velocidad, agrupado por Fset"><style>text{font-family:system-ui,-apple-system,"Segoe UI",Roboto,sans-serif;}.mono{font-family:ui-monospace,"SF Mono",Menlo,monospace;}.b{font-weight:600;}.ey{letter-spacing:.14em;}</style>
<line x1="64" y1="376.0" x2="752" y2="376.0" stroke="#eef2f7"/>
<text x="56" y="380.0" fill="#5a6472" font-size="11" text-anchor="end" class="mono">0</text>
<line x1="64" y1="326.7" x2="752" y2="326.7" stroke="#eef2f7"/>
<text x="56" y="330.7" fill="#5a6472" font-size="11" text-anchor="end" class="mono">500</text>
<line x1="64" y1="277.4" x2="752" y2="277.4" stroke="#eef2f7"/>
<text x="56" y="281.4" fill="#5a6472" font-size="11" text-anchor="end" class="mono">1000</text>
<line x1="64" y1="228.1" x2="752" y2="228.1" stroke="#eef2f7"/>
<text x="56" y="232.1" fill="#5a6472" font-size="11" text-anchor="end" class="mono">1500</text>
<line x1="64" y1="178.7" x2="752" y2="178.7" stroke="#eef2f7"/>
<text x="56" y="182.7" fill="#5a6472" font-size="11" text-anchor="end" class="mono">2000</text>
<line x1="64" y1="129.4" x2="752" y2="129.4" stroke="#eef2f7"/>
<text x="56" y="133.4" fill="#5a6472" font-size="11" text-anchor="end" class="mono">2500</text>
<line x1="64" y1="80.1" x2="752" y2="80.1" stroke="#eef2f7"/>
<text x="56" y="84.1" fill="#5a6472" font-size="11" text-anchor="end" class="mono">3000</text>
<line x1="64" y1="159.0" x2="752" y2="159.0" stroke="#B4740F" stroke-width="1" stroke-dasharray="4 3" opacity="0.7"/>
<text x="752" y="154.0" fill="#B4740F" font-size="10.5" text-anchor="end" class="mono">techo seguridad 2200 g</text>
<path d="M74.8 376.0 L74.8 376.0 Q74.8 375.3 75.5 375.3 L87.9 375.3 Q88.6 375.3 88.6 376.0 L88.6 376.0 Z" fill="#9FC2E0"/>
<line x1="81.7" y1="375.9" x2="81.7" y2="375.1" stroke="#12181f" stroke-width="1" opacity="0.55"/>
<path d="M90.6 376.0 L90.6 376.0 Q90.6 373.1 93.4 373.1 L101.4 373.1 Q104.3 373.1 104.3 376.0 L104.3 376.0 Z" fill="#6FA3D2"/>
<line x1="97.4" y1="373.7" x2="97.4" y2="372.8" stroke="#12181f" stroke-width="1" opacity="0.55"/>
<path d="M106.3 376.0 L106.3 372.7 Q106.3 369.7 109.3 369.7 L117.0 369.7 Q120.0 369.7 120.0 372.7 L120.0 376.0 Z" fill="#4682BE"/>
<line x1="113.1" y1="371.8" x2="113.1" y2="304.7" stroke="#12181f" stroke-width="1" opacity="0.55"/>
<path d="M122.0 376.0 L122.0 371.8 Q122.0 368.8 125.0 368.8 L132.7 368.8 Q135.7 368.8 135.7 371.8 L135.7 376.0 Z" fill="#285F97"/>
<line x1="128.9" y1="371.3" x2="128.9" y2="367.9" stroke="#12181f" stroke-width="1" opacity="0.55"/>
<path d="M137.7 376.0 L137.7 372.2 Q137.7 369.2 140.7 369.2 L148.5 369.2 Q151.5 369.2 151.5 372.2 L151.5 376.0 Z" fill="#123F63"/>
<line x1="144.6" y1="370.6" x2="144.6" y2="367.8" stroke="#12181f" stroke-width="1" opacity="0.55"/>
<text x="113.1" y="394" fill="#12181f" font-size="12" text-anchor="middle" class="mono b">25</text>
<path d="M173.1 376.0 L173.1 376.0 Q173.1 374.5 174.6 374.5 L185.4 374.5 Q186.8 374.5 186.8 376.0 L186.8 376.0 Z" fill="#9FC2E0"/>
<line x1="180.0" y1="375.9" x2="180.0" y2="373.9" stroke="#12181f" stroke-width="1" opacity="0.55"/>
<path d="M188.8 376.0 L188.8 371.0 Q188.8 368.0 191.8 368.0 L199.6 368.0 Q202.6 368.0 202.6 371.0 L202.6 376.0 Z" fill="#6FA3D2"/>
<line x1="195.7" y1="376.0" x2="195.7" y2="365.8" stroke="#12181f" stroke-width="1" opacity="0.55"/>
<path d="M204.6 376.0 L204.6 368.0 Q204.6 365.0 207.6 365.0 L215.3 365.0 Q218.3 365.0 218.3 368.0 L218.3 376.0 Z" fill="#4682BE"/>
<line x1="211.4" y1="367.5" x2="211.4" y2="364.3" stroke="#12181f" stroke-width="1" opacity="0.55"/>
<path d="M220.3 376.0 L220.3 369.1 Q220.3 366.1 223.3 366.1 L231.0 366.1 Q234.0 366.1 234.0 369.1 L234.0 376.0 Z" fill="#285F97"/>
<line x1="227.2" y1="376.0" x2="227.2" y2="365.0" stroke="#12181f" stroke-width="1" opacity="0.55"/>
<text x="227.2" y="362.1" fill="#B4740F" font-size="11" text-anchor="middle">▲</text>
<path d="M236.0 376.0 L236.0 367.0 Q236.0 364.0 239.0 364.0 L246.7 364.0 Q249.7 364.0 249.7 367.0 L249.7 376.0 Z" fill="#123F63"/>
<line x1="242.9" y1="369.2" x2="242.9" y2="360.9" stroke="#12181f" stroke-width="1" opacity="0.55"/>
<text x="211.4" y="394" fill="#12181f" font-size="12" text-anchor="middle" class="mono b">50</text>
<path d="M271.4 376.0 L271.4 376.0 Q271.4 375.5 271.9 375.5 L284.6 375.5 Q285.1 375.5 285.1 376.0 L285.1 376.0 Z" fill="#9FC2E0"/>
<line x1="278.3" y1="375.6" x2="278.3" y2="374.5" stroke="#12181f" stroke-width="1" opacity="0.55"/>
<path d="M287.1 376.0 L287.1 365.3 Q287.1 362.3 290.1 362.3 L297.9 362.3 Q300.9 362.3 300.9 365.3 L300.9 376.0 Z" fill="#6FA3D2"/>
<line x1="294.0" y1="366.7" x2="294.0" y2="358.4" stroke="#12181f" stroke-width="1" opacity="0.55"/>
<path d="M302.9 376.0 L302.9 359.1 Q302.9 356.1 305.9 356.1 L313.6 356.1 Q316.6 356.1 316.6 359.1 L316.6 376.0 Z" fill="#4682BE"/>
<line x1="309.7" y1="359.9" x2="309.7" y2="354.7" stroke="#12181f" stroke-width="1" opacity="0.55"/>
<path d="M318.6 376.0 L318.6 340.3 Q318.6 337.3 321.6 337.3 L329.3 337.3 Q332.3 337.3 332.3 340.3 L332.3 376.0 Z" fill="#285F97"/>
<line x1="325.4" y1="349.9" x2="325.4" y2="320.1" stroke="#12181f" stroke-width="1" opacity="0.55"/>
<path d="M334.3 376.0 L334.3 335.7 Q334.3 332.7 337.3 332.7 L345.0 332.7 Q348.0 332.7 348.0 335.7 L348.0 376.0 Z" fill="#123F63"/>
<line x1="341.2" y1="335.6" x2="341.2" y2="329.9" stroke="#12181f" stroke-width="1" opacity="0.55"/>
<text x="309.7" y="394" fill="#12181f" font-size="12" text-anchor="middle" class="mono b">100</text>
<path d="M369.7 376.0 L369.7 375.4 Q369.7 372.4 372.7 372.4 L380.4 372.4 Q383.4 372.4 383.4 375.4 L383.4 376.0 Z" fill="#9FC2E0"/>
<line x1="376.5" y1="373.5" x2="376.5" y2="371.9" stroke="#12181f" stroke-width="1" opacity="0.55"/>
<path d="M385.4 376.0 L385.4 345.9 Q385.4 342.9 388.4 342.9 L396.1 342.9 Q399.1 342.9 399.1 345.9 L399.1 376.0 Z" fill="#6FA3D2"/>
<line x1="392.3" y1="373.7" x2="392.3" y2="335.1" stroke="#12181f" stroke-width="1" opacity="0.55"/>
<path d="M401.1 376.0 L401.1 316.2 Q401.1 313.2 404.1 313.2 L411.9 313.2 Q414.9 313.2 414.9 316.2 L414.9 376.0 Z" fill="#4682BE"/>
<line x1="408.0" y1="355.4" x2="408.0" y2="302.3" stroke="#12181f" stroke-width="1" opacity="0.55"/>
<path d="M416.9 376.0 L416.9 269.7 Q416.9 266.7 419.9 266.7 L427.6 266.7 Q430.6 266.7 430.6 269.7 L430.6 376.0 Z" fill="#285F97"/>
<line x1="423.7" y1="306.2" x2="423.7" y2="205.0" stroke="#12181f" stroke-width="1" opacity="0.55"/>
<text x="423.7" y="262.7" fill="#B4740F" font-size="11" text-anchor="middle">▲</text>
<path d="M432.6 376.0 L432.6 217.3 Q432.6 214.3 435.6 214.3 L443.3 214.3 Q446.3 214.3 446.3 217.3 L446.3 376.0 Z" fill="#123F63"/>
<line x1="439.5" y1="300.3" x2="439.5" y2="199.2" stroke="#12181f" stroke-width="1" opacity="0.55"/>
<text x="439.5" y="210.3" fill="#B4740F" font-size="11" text-anchor="middle">▲</text>
<text x="408.0" y="394" fill="#12181f" font-size="12" text-anchor="middle" class="mono b">250</text>
<path d="M468.0 376.0 L468.0 376.0 Q468.0 373.6 470.3 373.6 L479.3 373.6 Q481.7 373.6 481.7 376.0 L481.7 376.0 Z" fill="#9FC2E0"/>
<line x1="474.8" y1="375.4" x2="474.8" y2="373.2" stroke="#12181f" stroke-width="1" opacity="0.55"/>
<path d="M483.7 376.0 L483.7 220.8 Q483.7 217.8 486.7 217.8 L494.4 217.8 Q497.4 217.8 497.4 220.8 L497.4 376.0 Z" fill="#6FA3D2"/>
<line x1="490.6" y1="308.1" x2="490.6" y2="147.5" stroke="#12181f" stroke-width="1" opacity="0.55"/>
<text x="490.6" y="213.8" fill="#B4740F" font-size="11" text-anchor="middle">▲</text>
<path d="M499.4 376.0 L499.4 135.8 Q499.4 132.8 502.4 132.8 L510.1 132.8 Q513.1 132.8 513.1 135.8 L513.1 376.0 Z" fill="#4682BE"/>
<line x1="506.3" y1="184.3" x2="506.3" y2="127.3" stroke="#12181f" stroke-width="1" opacity="0.55"/>
<text x="506.3" y="128.8" fill="#B4740F" font-size="11" text-anchor="middle">▲</text>
<path d="M515.1 376.0 L515.1 162.6 Q515.1 159.6 518.1 159.6 L525.9 159.6 Q528.9 159.6 528.9 162.6 L528.9 376.0 Z" fill="#285F97"/>
<line x1="522.0" y1="162.9" x2="522.0" y2="153.6" stroke="#12181f" stroke-width="1" opacity="0.55"/>
<text x="522.0" y="155.6" fill="#B4740F" font-size="11" text-anchor="middle">▲</text>
<path d="M530.9 376.0 L530.9 179.7 Q530.9 176.7 533.9 176.7 L541.6 176.7 Q544.6 176.7 544.6 179.7 L544.6 376.0 Z" fill="#123F63"/>
<line x1="537.7" y1="182.3" x2="537.7" y2="173.3" stroke="#12181f" stroke-width="1" opacity="0.55"/>
<text x="537.7" y="172.7" fill="#B4740F" font-size="11" text-anchor="middle">▲</text>
<text x="506.3" y="394" fill="#12181f" font-size="12" text-anchor="middle" class="mono b">500</text>
<path d="M566.3 376.0 L566.3 376.0 Q566.3 373.2 569.0 373.2 L577.2 373.2 Q580.0 373.2 580.0 376.0 L580.0 376.0 Z" fill="#9FC2E0"/>
<line x1="573.1" y1="374.9" x2="573.1" y2="372.8" stroke="#12181f" stroke-width="1" opacity="0.55"/>
<path d="M582.0 376.0 L582.0 82.6 Q582.0 79.6 585.0 79.6 L592.7 79.6 Q595.7 79.6 595.7 82.6 L595.7 376.0 Z" fill="#6FA3D2"/>
<line x1="588.8" y1="83.2" x2="588.8" y2="43.2" stroke="#12181f" stroke-width="1" opacity="0.55"/>
<text x="588.8" y="75.6" fill="#B4740F" font-size="11" text-anchor="middle">▲</text>
<path d="M597.7 376.0 L597.7 73.7 Q597.7 70.7 600.7 70.7 L608.4 70.7 Q611.4 70.7 611.4 73.7 L611.4 376.0 Z" fill="#4682BE"/>
<line x1="604.6" y1="71.7" x2="604.6" y2="67.0" stroke="#12181f" stroke-width="1" opacity="0.55"/>
<text x="604.6" y="66.7" fill="#B4740F" font-size="11" text-anchor="middle">▲</text>
<path d="M613.4 376.0 L613.4 110.1 Q613.4 107.1 616.4 107.1 L624.2 107.1 Q627.2 107.1 627.2 110.1 L627.2 376.0 Z" fill="#285F97"/>
<line x1="620.3" y1="119.8" x2="620.3" y2="101.4" stroke="#12181f" stroke-width="1" opacity="0.55"/>
<text x="620.3" y="103.1" fill="#B4740F" font-size="11" text-anchor="middle">▲</text>
<path d="M629.2 376.0 L629.2 154.8 Q629.2 151.8 632.2 151.8 L639.9 151.8 Q642.9 151.8 642.9 154.8 L642.9 376.0 Z" fill="#123F63"/>
<line x1="636.0" y1="155.4" x2="636.0" y2="128.3" stroke="#12181f" stroke-width="1" opacity="0.55"/>
<text x="636.0" y="147.8" fill="#B4740F" font-size="11" text-anchor="middle">▲</text>
<text x="604.6" y="394" fill="#12181f" font-size="12" text-anchor="middle" class="mono b">750</text>
<path d="M664.5 376.0 L664.5 375.4 Q664.5 372.4 667.5 372.4 L675.3 372.4 Q678.3 372.4 678.3 375.4 L678.3 376.0 Z" fill="#9FC2E0"/>
<line x1="671.4" y1="373.0" x2="671.4" y2="359.6" stroke="#12181f" stroke-width="1" opacity="0.55"/>
<path d="M680.3 376.0 L680.3 57.2 Q680.3 54.2 683.3 54.2 L691.0 54.2 Q694.0 54.2 694.0 57.2 L694.0 376.0 Z" fill="#6FA3D2"/>
<line x1="687.1" y1="66.7" x2="687.1" y2="41.1" stroke="#12181f" stroke-width="1" opacity="0.55"/>
<text x="687.1" y="50.2" fill="#B4740F" font-size="11" text-anchor="middle">▲</text>
<path d="M696.0 376.0 L696.0 91.3 Q696.0 88.3 699.0 88.3 L706.7 88.3 Q709.7 88.3 709.7 91.3 L709.7 376.0 Z" fill="#4682BE"/>
<line x1="702.9" y1="110.3" x2="702.9" y2="64.9" stroke="#12181f" stroke-width="1" opacity="0.55"/>
<text x="702.9" y="84.3" fill="#B4740F" font-size="11" text-anchor="middle">▲</text>
<path d="M711.7 376.0 L711.7 96.4 Q711.7 93.4 714.7 93.4 L722.4 93.4 Q725.4 93.4 725.4 96.4 L725.4 376.0 Z" fill="#285F97"/>
<line x1="718.6" y1="234.0" x2="718.6" y2="90.1" stroke="#12181f" stroke-width="1" opacity="0.55"/>
<text x="718.6" y="89.4" fill="#B4740F" font-size="11" text-anchor="middle">▲</text>
<path d="M727.4 376.0 L727.4 132.2 Q727.4 129.2 730.4 129.2 L738.2 129.2 Q741.2 129.2 741.2 132.2 L741.2 376.0 Z" fill="#123F63"/>
<line x1="734.3" y1="150.5" x2="734.3" y2="122.5" stroke="#12181f" stroke-width="1" opacity="0.55"/>
<text x="734.3" y="125.2" fill="#B4740F" font-size="11" text-anchor="middle">▲</text>
<text x="702.9" y="394" fill="#12181f" font-size="12" text-anchor="middle" class="mono b">1000</text>
<line x1="64" y1="376.0" x2="752" y2="376.0" stroke="#dbe2ec"/>
<line x1="64" y1="22" x2="64" y2="376.0" stroke="#dbe2ec"/>
<text x="408" y="424" fill="#5a6472" font-size="12.5" text-anchor="middle" class="ey">SPEED_SET (velocidad de cierre)</text>
<text transform="translate(15,199) rotate(-90)" fill="#5a6472" font-size="12.5" text-anchor="middle" class="ey">sobreimpulso  ΔF = F_max − Fset  (g)</text>
</svg>