<svg xmlns="http://www.w3.org/2000/svg" width="770" height="330" viewBox="0 0 770 330" role="img" aria-label="Comparación de sobreimpulso: modo A rápido, A lento y B híbrido vs Fset"><style>text{font-family:system-ui,-apple-system,"Segoe UI",Roboto,sans-serif;}.mono{font-family:ui-monospace,"SF Mono",Menlo,monospace;}.b{font-weight:600;}.ey{letter-spacing:.14em;}</style>
<line x1="64" y1="280.0" x2="638" y2="280.0" stroke="#eef2f7"/>
<text x="56" y="284.0" fill="#5a6472" font-size="11" text-anchor="end" class="mono">0</text>
<line x1="64" y1="208.3" x2="638" y2="208.3" stroke="#eef2f7"/>
<text x="56" y="212.3" fill="#5a6472" font-size="11" text-anchor="end" class="mono">1000</text>
<line x1="64" y1="136.6" x2="638" y2="136.6" stroke="#eef2f7"/>
<text x="56" y="140.6" fill="#5a6472" font-size="11" text-anchor="end" class="mono">2000</text>
<line x1="64" y1="64.9" x2="638" y2="64.9" stroke="#eef2f7"/>
<text x="56" y="68.9" fill="#5a6472" font-size="11" text-anchor="end" class="mono">3000</text>
<text x="64.0" y="298" fill="#5a6472" font-size="11" text-anchor="middle" class="mono">100</text>
<text x="207.5" y="298" fill="#5a6472" font-size="11" text-anchor="middle" class="mono">250</text>
<text x="351.0" y="298" fill="#5a6472" font-size="11" text-anchor="middle" class="mono">500</text>
<text x="494.5" y="298" fill="#5a6472" font-size="11" text-anchor="middle" class="mono">750</text>
<text x="638.0" y="298" fill="#5a6472" font-size="11" text-anchor="middle" class="mono">1000</text>
<polyline points="64.0,277.4 207.5,46.1 351.0,70.9 494.5,74.6 638.0,100.6" fill="none" stroke="#B4740F" stroke-width="2.4"/>
<circle cx="64.0" cy="277.4" r="3.4" fill="#B4740F" stroke="#fff" stroke-width="1.2"/>
<circle cx="207.5" cy="46.1" r="3.4" fill="#B4740F" stroke="#fff" stroke-width="1.2"/>
<circle cx="351.0" cy="70.9" r="3.4" fill="#B4740F" stroke="#fff" stroke-width="1.2"/>
<circle cx="494.5" cy="74.6" r="3.4" fill="#B4740F" stroke="#fff" stroke-width="1.2"/>
<circle cx="638.0" cy="100.6" r="3.4" fill="#B4740F" stroke="#fff" stroke-width="1.2"/>
<text x="646.0" y="104.6" fill="#B4740F" font-size="12" class="mono b">A · v=1000 (rápido)</text>
<polyline points="64.0,279.5 207.5,277.9 351.0,275.4 494.5,274.8 638.0,275.1" fill="none" stroke="#6FA3D2" stroke-width="2.4"/>
<circle cx="64.0" cy="279.5" r="3.4" fill="#6FA3D2" stroke="#fff" stroke-width="1.2"/>
<circle cx="207.5" cy="277.9" r="3.4" fill="#6FA3D2" stroke="#fff" stroke-width="1.2"/>
<circle cx="351.0" cy="275.4" r="3.4" fill="#6FA3D2" stroke="#fff" stroke-width="1.2"/>
<circle cx="494.5" cy="274.8" r="3.4" fill="#6FA3D2" stroke="#fff" stroke-width="1.2"/>
<circle cx="638.0" cy="275.1" r="3.4" fill="#6FA3D2" stroke="#fff" stroke-width="1.2"/>
<text x="646.0" y="279.1" fill="#6FA3D2" font-size="12" class="mono b">A · v=25 (lento)</text>
<polyline points="64.0,279.9 207.5,278.2 351.0,277.2 494.5,274.9 638.0,273.4" fill="none" stroke="#285F97" stroke-width="2.4"/>
<circle cx="64.0" cy="279.9" r="3.4" fill="#285F97" stroke="#fff" stroke-width="1.2"/>
<circle cx="207.5" cy="278.2" r="3.4" fill="#285F97" stroke="#fff" stroke-width="1.2"/>
<circle cx="351.0" cy="277.2" r="3.4" fill="#285F97" stroke="#fff" stroke-width="1.2"/>
<circle cx="494.5" cy="274.9" r="3.4" fill="#285F97" stroke="#fff" stroke-width="1.2"/>
<circle cx="638.0" cy="273.4" r="3.4" fill="#285F97" stroke="#fff" stroke-width="1.2"/>
<text x="646.0" y="277.4" fill="#285F97" font-size="12" class="mono b">B · híbrido</text>
<line x1="64" y1="280.0" x2="638" y2="280.0" stroke="#dbe2ec"/>
<line x1="64" y1="18" x2="64" y2="280.0" stroke="#dbe2ec"/>
<text x="351" y="324" fill="#5a6472" font-size="12.5" text-anchor="middle" class="ey">FORCE_SET (g)</text>
<text transform="translate(15,149) rotate(-90)" fill="#5a6472" font-size="12.5" text-anchor="middle" class="ey">sobreimpulso ΔF (g)</text>
</svg>