<svg xmlns="http://www.w3.org/2000/svg" width="760" height="400" viewBox="0 0 760 400" role="img" aria-label="POS_ACT normalizada vs tiempo desde el comando, por velocidad"><style>text{font-family:system-ui,-apple-system,"Segoe UI",Roboto,sans-serif;}.mono{font-family:ui-monospace,"SF Mono",Menlo,monospace;}.b{font-weight:600;}.ey{letter-spacing:.14em;}</style>
<line x1="87.8" y1="20" x2="87.8" y2="354" stroke="#eef2f7"/>
<text x="87.8" y="372" fill="#5a6472" font-size="12" text-anchor="middle" class="mono">0.0</text>
<line x1="212.1" y1="20" x2="212.1" y2="354" stroke="#eef2f7"/>
<text x="212.1" y="372" fill="#5a6472" font-size="12" text-anchor="middle" class="mono">0.5</text>
<line x1="336.4" y1="20" x2="336.4" y2="354" stroke="#eef2f7"/>
<text x="336.4" y="372" fill="#5a6472" font-size="12" text-anchor="middle" class="mono">1.0</text>
<line x1="460.6" y1="20" x2="460.6" y2="354" stroke="#eef2f7"/>
<text x="460.6" y="372" fill="#5a6472" font-size="12" text-anchor="middle" class="mono">1.5</text>
<line x1="584.9" y1="20" x2="584.9" y2="354" stroke="#eef2f7"/>
<text x="584.9" y="372" fill="#5a6472" font-size="12" text-anchor="middle" class="mono">2.0</text>
<line x1="709.1" y1="20" x2="709.1" y2="354" stroke="#eef2f7"/>
<text x="709.1" y="372" fill="#5a6472" font-size="12" text-anchor="middle" class="mono">2.5</text>
<line x1="58" y1="339.2" x2="734" y2="339.2" stroke="#eef2f7"/>
<text x="50" y="343.2" fill="#5a6472" font-size="12" text-anchor="end" class="mono">0.00</text>
<line x1="58" y1="265.3" x2="734" y2="265.3" stroke="#eef2f7"/>
<text x="50" y="269.3" fill="#5a6472" font-size="12" text-anchor="end" class="mono">0.25</text>
<line x1="58" y1="191.4" x2="734" y2="191.4" stroke="#eef2f7"/>
<text x="50" y="195.4" fill="#5a6472" font-size="12" text-anchor="end" class="mono">0.50</text>
<line x1="58" y1="117.5" x2="734" y2="117.5" stroke="#eef2f7"/>
<text x="50" y="121.5" fill="#5a6472" font-size="12" text-anchor="end" class="mono">0.75</text>
<line x1="58" y1="43.6" x2="734" y2="43.6" stroke="#eef2f7"/>
<text x="50" y="47.6" fill="#5a6472" font-size="12" text-anchor="end" class="mono">1.00</text>
<line x1="87.8" y1="20" x2="87.8" y2="354" stroke="#12181f" stroke-width="1" stroke-dasharray="3 3" opacity="0.5"/>
<text x="92.8" y="33" fill="#12181f" font-size="11" class="ey">comando</text>
<path d="M 63.0 339.2 L 65.5 339.2 L 67.9 339.2 L 70.4 339.2 L 72.9 339.2 L 75.4 339.2 L 77.9 339.2 L 80.4 339.2 L 82.9 339.2 L 85.3 339.2 L 87.8 339.2 L 90.3 339.2 L 92.8 339.2 L 95.3 339.2 L 97.8 338.9 L 100.2 338.8 L 102.7 338.1 L 105.2 337.1 L 107.7 336.7 L 110.2 336.3 L 112.7 335.7 L 115.2 335.4 L 117.6 335.1 L 120.1 334.6 L 122.6 334.4 L 125.1 333.9 L 127.6 332.8 L 130.1 332.0 L 132.6 330.9 L 135.0 329.7 L 137.5 329.1 L 140.0 328.3 L 142.5 327.4 L 145.0 326.7 L 147.5 325.9 L 150.0 325.1 L 152.4 324.5 L 154.9 324.0 L 157.4 323.5 L 159.9 322.8 L 162.4 322.2 L 164.9 321.4 L 167.4 320.7 L 169.8 320.0 L 172.3 319.2 L 174.8 318.5 L 177.3 317.9 L 179.8 317.3 L 182.3 316.9 L 184.8 316.2 L 187.2 315.6 L 189.7 315.2 L 192.2 314.4 L 194.7 313.8 L 197.2 313.2 L 199.7 312.4 L 202.1 311.5 L 204.6 310.8 L 207.1 310.2 L 209.6 309.6 L 212.1 309.0 L 214.6 308.2 L 217.1 307.6 L 219.5 307.1 L 222.0 306.3 L 224.5 305.8 L 227.0 305.2 L 229.5 304.2 L 232.0 303.5 L 234.5 302.8 L 236.9 302.3 L 239.4 301.7 L 241.9 300.8 L 244.4 299.9 L 246.9 299.0 L 249.4 298.5 L 251.9 297.8 L 254.3 297.3 L 256.8 296.6 L 259.3 295.7 L 261.8 295.3 L 264.3 295.0 L 266.8 294.4 L 269.2 293.8 L 271.7 293.2 L 274.2 292.1 L 276.7 291.7 L 279.2 291.1 L 281.7 290.3 L 284.2 289.6 L 286.6 288.9 L 289.1 288.3 L 291.6 287.6 L 294.1 286.8 L 296.6 286.0 L 299.1 285.4 L 301.6 284.9 L 304.0 284.4 L 306.5 283.8 L 309.0 283.0 L 311.5 282.2 L 314.0 281.5 L 316.5 280.7 L 319.0 280.0 L 321.4 279.1 L 323.9 278.5 L 326.4 277.9 L 328.9 277.2 L 331.4 276.6 L 333.9 276.0 L 336.4 275.5 L 338.8 274.5 L 341.3 273.5 L 343.8 273.0 L 346.3 272.5 L 348.8 272.1 L 351.3 271.4 L 353.7 270.6 L 356.2 270.0 L 358.7 269.1 L 361.2 268.2 L 363.7 267.6 L 366.2 266.8 L 368.7 266.1 L 371.1 265.5 L 373.6 265.0 L 376.1 264.3 L 378.6 263.8 L 381.1 263.2 L 383.6 262.4 L 386.1 261.8 L 388.5 261.1 L 391.0 260.6 L 393.5 259.7 L 396.0 259.1 L 398.5 258.3 L 401.0 257.5 L 403.5 256.9 L 405.9 256.3 L 408.4 255.7 L 410.9 255.2 L 413.4 254.7 L 415.9 254.4 L 418.4 253.9 L 420.9 253.0 L 423.3 252.5 L 425.8 251.9 L 428.3 251.0 L 430.8 250.4 L 433.3 249.8 L 435.8 249.1 L 438.2 248.6 L 440.7 247.9 L 443.2 247.3 L 445.7 246.5 L 448.2 245.6 L 450.7 244.6 L 453.2 243.8 L 455.6 243.1 L 458.1 242.3 L 460.6 241.6 L 463.1 241.0 L 465.6 240.4 L 468.1 239.5 L 470.6 238.6 L 473.0 237.9 L 475.5 237.2 L 478.0 236.5 L 480.5 235.7 L 483.0 235.1 L 485.5 234.5 L 488.0 233.7 L 490.4 233.2 L 492.9 232.5 L 495.4 232.0 L 497.9 231.7 L 500.4 231.1 L 502.9 230.5 L 505.4 229.9 L 507.8 229.4 L 510.3 229.0 L 512.8 228.3 L 515.3 227.4 L 517.8 226.7 L 520.3 225.9 L 522.8 225.1 L 525.2 224.5 L 527.7 223.9 L 530.2 223.2 L 532.7 222.7 L 535.2 222.3 L 537.7 221.5 L 540.1 221.0 L 542.6 220.6 L 545.1 219.7 L 547.6 218.9 L 550.1 218.2 L 552.6 217.4 L 555.1 216.6 L 557.5 216.1 L 560.0 215.4 L 562.5 214.9 L 565.0 214.1 L 567.5 213.2 L 570.0 212.6 L 572.5 211.7 L 574.9 210.4 L 577.4 209.7 L 579.9 208.9 L 582.4 207.8 L 584.9 207.2 L 587.4 206.7 L 589.9 206.0 L 592.3 205.5 L 594.8 205.1 L 597.3 204.5 L 599.8 203.7 L 602.3 203.1 L 604.8 202.5 L 607.2 202.0 L 609.7 201.4 L 612.2 200.6 L 614.7 200.2 L 617.2 199.6 L 619.7 199.2 L 622.2 198.6 L 624.6 198.2 L 627.1 197.6 L 629.6 197.1 L 632.1 196.4 L 634.6 195.6 L 637.1 195.1 L 639.6 194.1 L 642.0 193.3 L 644.5 192.7 L 647.0 192.2 L 649.5 191.6 L 652.0 191.2 L 654.5 190.2 L 657.0 189.5 L 659.4 188.9 L 661.9 188.2 L 664.4 187.7 L 666.9 187.0 L 669.4 186.3 L 671.9 185.8 L 674.4 184.9 L 676.8 183.9 L 679.3 183.2 L 681.8 182.6 L 684.3 181.5 L 686.8 180.8 L 689.3 180.0 L 691.8 179.1 L 694.2 178.6 L 696.7 178.0 L 699.2 177.4 L 701.7 176.9 L 704.2 176.5 L 706.7 175.8 L 709.1 175.0 L 711.6 174.4 L 714.1 173.4 L 716.6 172.6 L 719.1 171.9 L 721.6 170.9 L 724.1 170.4 L 726.5 169.9 L 729.0 169.2 L 731.5 168.8 L 734.0 168.3" fill="none" stroke="#9FC2E0" stroke-width="2.4" stroke-linejoin="round"/>
<circle cx="734.0" cy="168.3" r="3.2" fill="#9FC2E0"/>
<path d="M 63.0 339.2 L 65.5 339.2 L 67.9 339.2 L 70.4 339.2 L 72.9 339.2 L 75.4 339.2 L 77.9 339.2 L 80.4 339.2 L 82.9 339.2 L 85.3 339.2 L 87.8 339.2 L 90.3 339.2 L 92.8 339.2 L 95.3 339.2 L 97.8 339.2 L 100.2 339.0 L 102.7 338.1 L 105.2 337.4 L 107.7 336.5 L 110.2 335.0 L 112.7 333.6 L 115.2 332.2 L 117.6 330.5 L 120.1 328.1 L 122.6 326.0 L 125.1 324.5 L 127.6 322.8 L 130.1 320.7 L 132.6 319.2 L 135.0 317.8 L 137.5 315.6 L 140.0 314.1 L 142.5 312.8 L 145.0 310.9 L 147.5 309.5 L 150.0 307.9 L 152.4 306.1 L 154.9 304.1 L 157.4 302.5 L 159.9 301.3 L 162.4 299.1 L 164.9 297.0 L 167.4 296.0 L 169.8 294.3 L 172.3 292.9 L 174.8 291.7 L 177.3 289.6 L 179.8 287.4 L 182.3 285.5 L 184.8 284.6 L 187.2 283.1 L 189.7 281.1 L 192.2 279.4 L 194.7 278.0 L 197.2 275.8 L 199.7 274.4 L 202.1 273.1 L 204.6 270.8 L 207.1 268.8 L 209.6 267.4 L 212.1 266.0 L 214.6 264.0 L 217.1 262.5 L 219.5 260.7 L 222.0 258.7 L 224.5 257.2 L 227.0 255.6 L 229.5 254.3 L 232.0 252.6 L 234.5 250.8 L 236.9 249.8 L 239.4 248.4 L 241.9 246.0 L 244.4 244.7 L 246.9 242.5 L 249.4 240.0 L 251.9 238.4 L 254.3 236.9 L 256.8 234.7 L 259.3 233.2 L 261.8 232.1 L 264.3 230.4 L 266.8 228.8 L 269.2 227.5 L 271.7 226.1 L 274.2 224.2 L 276.7 222.4 L 279.2 221.0 L 281.7 219.4 L 284.2 217.3 L 286.6 215.8 L 289.1 214.4 L 291.6 212.1 L 294.1 210.1 L 296.6 208.2 L 299.1 205.8 L 301.6 204.4 L 304.0 203.2 L 306.5 201.5 L 309.0 199.9 L 311.5 199.1 L 314.0 197.7 L 316.5 195.3 L 319.0 193.4 L 321.4 192.5 L 323.9 190.8 L 326.4 189.3 L 328.9 188.3 L 331.4 185.9 L 333.9 184.2 L 336.4 182.2 L 338.8 180.6 L 341.3 178.9 L 343.8 176.8 L 346.3 175.4 L 348.8 174.0 L 351.3 171.8 L 353.7 170.4 L 356.2 169.2 L 358.7 167.2 L 361.2 165.5 L 363.7 164.0 L 366.2 162.0 L 368.7 160.4 L 371.1 159.2 L 373.6 157.6 L 376.1 156.0 L 378.6 154.0 L 381.1 152.0 L 383.6 150.5 L 386.1 148.6 L 388.5 146.9 L 391.0 145.4 L 393.5 143.9 L 396.0 141.9 L 398.5 140.6 L 401.0 139.0 L 403.5 136.4 L 405.9 135.2 L 408.4 133.7 L 410.9 131.8 L 413.4 130.2 L 415.9 129.3 L 418.4 127.6 L 420.9 125.5 L 423.3 124.1 L 425.8 122.5 L 428.3 120.3 L 430.8 118.4 L 433.3 117.0 L 435.8 115.3 L 438.2 113.2 L 440.7 111.8 L 443.2 110.4 L 445.7 108.1 L 448.2 106.6 L 450.7 105.2 L 453.2 103.5 L 455.6 102.0 L 458.1 100.6 L 460.6 98.5 L 463.1 96.2 L 465.6 94.7 L 468.1 93.5 L 470.6 91.9 L 473.0 90.5 L 475.5 89.4 L 478.0 87.5 L 480.5 85.9 L 483.0 84.6 L 485.5 82.0 L 488.0 80.3 L 490.4 78.3 L 492.9 77.0 L 495.4 75.3 L 497.9 73.3 L 500.4 72.0 L 502.9 70.6 L 505.4 68.2 L 507.8 67.1 L 510.3 65.9 L 512.8 63.9 L 515.3 62.0 L 517.8 60.4 L 520.3 58.9 L 522.8 57.2 L 525.2 55.3 L 527.7 53.1 L 530.2 51.4 L 532.7 49.9 L 535.2 48.5 L 537.7 47.1 L 540.1 45.5 L 542.6 45.3 L 545.1 45.2 L 547.6 44.9 L 550.1 44.7 L 552.6 44.6 L 555.1 44.5 L 557.5 44.2 L 560.0 44.0 L 562.5 44.0 L 565.0 43.8 L 567.5 43.8 L 570.0 43.7 L 572.5 43.6 L 574.9 43.6 L 577.4 43.6 L 579.9 43.6 L 582.4 43.6 L 584.9 43.6 L 587.4 43.6 L 589.9 43.6 L 592.3 43.6 L 594.8 43.6 L 597.3 43.6 L 599.8 43.6 L 602.3 43.6 L 604.8 43.6 L 607.2 43.6 L 609.7 43.6 L 612.2 43.7 L 614.7 43.7 L 617.2 43.7 L 619.7 43.7 L 622.2 43.6" fill="none" stroke="#6FA3D2" stroke-width="2.4" stroke-linejoin="round"/>
<circle cx="622.2" cy="43.6" r="3.2" fill="#6FA3D2"/>
<path d="M 63.0 339.2 L 65.5 339.2 L 67.9 339.2 L 70.4 339.2 L 72.9 339.2 L 75.4 339.2 L 77.9 339.2 L 80.4 339.2 L 82.9 339.2 L 85.3 339.2 L 87.8 339.2 L 90.3 339.2 L 92.8 339.2 L 95.3 339.1 L 97.8 339.0 L 100.2 338.4 L 102.7 338.0 L 105.2 336.7 L 107.7 335.2 L 110.2 333.9 L 112.7 331.7 L 115.2 328.5 L 117.6 325.8 L 120.1 322.4 L 122.6 318.4 L 125.1 315.6 L 127.6 312.6 L 130.1 308.8 L 132.6 305.6 L 135.0 302.5 L 137.5 298.4 L 140.0 295.2 L 142.5 292.8 L 145.0 289.2 L 147.5 285.3 L 150.0 282.2 L 152.4 278.7 L 154.9 275.1 L 157.4 271.6 L 159.9 267.9 L 162.4 266.0 L 164.9 262.0 L 167.4 257.8 L 169.8 255.8 L 172.3 253.2 L 174.8 248.8 L 177.3 245.8 L 179.8 242.3 L 182.3 236.8 L 184.8 235.3 L 187.2 232.4 L 189.7 227.2 L 192.2 225.3 L 194.7 222.3 L 197.2 218.9 L 199.7 215.6 L 202.1 211.7 L 204.6 207.8 L 207.1 205.1 L 209.6 200.4 L 212.1 196.7 L 214.6 194.2 L 217.1 190.7 L 219.5 186.9 L 222.0 184.3 L 224.5 180.8 L 227.0 176.8 L 229.5 174.8 L 232.0 171.2 L 234.5 166.9 L 236.9 164.8 L 239.4 160.9 L 241.9 157.4 L 244.4 154.4 L 246.9 151.3 L 249.4 148.3 L 251.9 145.4 L 254.3 140.0 L 256.8 137.1 L 259.3 133.8 L 261.8 130.7 L 264.3 128.6 L 266.8 125.0 L 269.2 121.3 L 271.7 118.5 L 274.2 114.7 L 276.7 109.9 L 279.2 107.1 L 281.7 104.3 L 284.2 100.4 L 286.6 97.5 L 289.1 94.6 L 291.6 90.7 L 294.1 87.4 L 296.6 84.3 L 299.1 80.4 L 301.6 76.6 L 304.0 73.4 L 306.5 70.5 L 309.0 67.3 L 311.5 63.7 L 314.0 60.0 L 316.5 57.5 L 319.0 55.1 L 321.4 51.1 L 323.9 50.6 L 326.4 47.5 L 328.9 45.8 L 331.4 45.4 L 333.9 44.9 L 336.4 44.5 L 338.8 44.4 L 341.3 44.2 L 343.8 44.0 L 346.3 43.9 L 348.8 43.7 L 351.3 43.7 L 353.7 43.6 L 356.2 43.6 L 358.7 43.6 L 361.2 43.6 L 363.7 43.6 L 366.2 43.6 L 368.7 43.6 L 371.1 43.6 L 373.6 43.6 L 376.1 43.6 L 378.6 43.7 L 381.1 43.7 L 383.6 43.7 L 386.1 43.7 L 388.5 43.7 L 391.0 43.7 L 393.5 43.7 L 396.0 43.7 L 398.5 43.7 L 401.0 43.7 L 403.5 43.7 L 405.9 43.6 L 408.4 43.7 L 410.9 43.7 L 413.4 43.8 L 415.9 43.8" fill="none" stroke="#4682BE" stroke-width="2.4" stroke-linejoin="round"/>
<circle cx="415.9" cy="43.8" r="3.2" fill="#4682BE"/>
<path d="M 63.0 339.2 L 65.5 339.2 L 67.9 339.2 L 70.4 339.2 L 72.9 339.2 L 75.4 339.2 L 77.9 339.2 L 80.4 339.2 L 82.9 339.2 L 85.3 339.2 L 87.8 339.2 L 90.3 339.2 L 92.8 339.2 L 95.3 339.2 L 97.8 339.2 L 100.2 338.7 L 102.7 337.6 L 105.2 336.8 L 107.7 335.1 L 110.2 333.3 L 112.7 332.0 L 115.2 328.8 L 117.6 325.1 L 120.1 322.6 L 122.6 319.2 L 125.1 315.7 L 127.6 312.7 L 130.1 307.1 L 132.6 301.1 L 135.0 296.1 L 137.5 290.4 L 140.0 285.5 L 142.5 282.0 L 145.0 275.4 L 147.5 269.4 L 150.0 265.6 L 152.4 259.4 L 154.9 255.2 L 157.4 251.5 L 159.9 243.8 L 162.4 238.3 L 164.9 236.0 L 167.4 227.6 L 169.8 224.0 L 172.3 220.9 L 174.8 213.8 L 177.3 208.2 L 179.8 203.7 L 182.3 197.9 L 184.8 193.8 L 187.2 188.9 L 189.7 183.2 L 192.2 179.1 L 194.7 173.4 L 197.2 167.2 L 199.7 162.9 L 202.1 158.4 L 204.6 152.5 L 207.1 148.8 L 209.6 143.6 L 212.1 136.5 L 214.6 132.8 L 217.1 129.4 L 219.5 122.0 L 222.0 117.7 L 224.5 115.0 L 227.0 111.0 L 229.5 105.0 L 232.0 100.0 L 234.5 92.2 L 236.9 86.8 L 239.4 83.4 L 241.9 78.0 L 244.4 73.4 L 246.9 68.4 L 249.4 63.3 L 251.9 60.7 L 254.3 57.2 L 256.8 54.1 L 259.3 52.3 L 261.8 48.2 L 264.3 46.2 L 266.8 45.3 L 269.2 44.9 L 271.7 44.5 L 274.2 44.3 L 276.7 44.2 L 279.2 44.0 L 281.7 43.8 L 284.2 43.7 L 286.6 43.6 L 289.1 43.6 L 291.6 43.6 L 294.1 43.6 L 296.6 43.6 L 299.1 43.6 L 301.6 43.6 L 304.0 43.6 L 306.5 43.6 L 309.0 43.6 L 311.5 43.6 L 314.0 43.7 L 316.5 43.7 L 319.0 43.7 L 321.4 43.7 L 323.9 43.7 L 326.4 43.7 L 328.9 43.7 L 331.4 43.7 L 333.9 43.7 L 336.4 43.7 L 338.8 43.7 L 341.3 43.7" fill="none" stroke="#285F97" stroke-width="2.4" stroke-linejoin="round"/>
<circle cx="341.3" cy="43.7" r="3.2" fill="#285F97"/>
<path d="M 63.0 339.2 L 65.5 339.2 L 67.9 339.2 L 70.4 339.2 L 72.9 339.2 L 75.4 339.2 L 77.9 339.2 L 80.4 339.2 L 82.9 339.2 L 85.3 339.2 L 87.8 339.2 L 90.3 339.2 L 92.8 339.2 L 95.3 339.2 L 97.8 339.1 L 100.2 338.8 L 102.7 337.1 L 105.2 336.0 L 107.7 334.4 L 110.2 332.4 L 112.7 330.9 L 115.2 328.9 L 117.6 325.2 L 120.1 321.7 L 122.6 318.3 L 125.1 314.0 L 127.6 310.0 L 130.1 305.0 L 132.6 299.9 L 135.0 294.6 L 137.5 288.5 L 140.0 281.7 L 142.5 275.9 L 145.0 270.8 L 147.5 264.6 L 150.0 260.7 L 152.4 254.1 L 154.9 244.2 L 157.4 236.7 L 159.9 230.5 L 162.4 220.4 L 164.9 216.6 L 167.4 210.1 L 169.8 201.6 L 172.3 198.6 L 174.8 191.3 L 177.3 183.5 L 179.8 178.5 L 182.3 171.3 L 184.8 163.6 L 187.2 158.3 L 189.7 151.0 L 192.2 143.1 L 194.7 139.1 L 197.2 131.5 L 199.7 125.4 L 202.1 121.0 L 204.6 112.8 L 207.1 105.4 L 209.6 98.9 L 212.1 89.8 L 214.6 84.1 L 217.1 81.4 L 219.5 76.1 L 222.0 69.6 L 224.5 66.0 L 227.0 62.1 L 229.5 57.6 L 232.0 56.0 L 234.5 52.2 L 236.9 49.1 L 239.4 47.6 L 241.9 46.2 L 244.4 45.2 L 246.9 44.7 L 249.4 44.4 L 251.9 44.3 L 254.3 44.1 L 256.8 43.9 L 259.3 43.7 L 261.8 43.7 L 264.3 43.7 L 266.8 43.6 L 269.2 43.6 L 271.7 43.6 L 274.2 43.6 L 276.7 43.6 L 279.2 43.6 L 281.7 43.6 L 284.2 43.6 L 286.6 43.7 L 289.1 43.7 L 291.6 43.7 L 294.1 43.7 L 296.6 43.7 L 299.1 43.7 L 301.6 43.6 L 304.0 43.6 L 306.5 43.6 L 309.0 43.6 L 311.5 43.7 L 314.0 43.7 L 316.5 43.7 L 319.0 43.7 L 321.4 43.6 L 323.9 43.6 L 326.4 43.6" fill="none" stroke="#123F63" stroke-width="2.4" stroke-linejoin="round"/>
<circle cx="326.4" cy="43.6" r="3.2" fill="#123F63"/>
<line x1="58" y1="354" x2="734" y2="354" stroke="#dbe2ec"/>
<line x1="58" y1="20" x2="58" y2="354" stroke="#dbe2ec"/>
<text x="396" y="394" fill="#5a6472" font-size="12.5" text-anchor="middle" class="ey">tiempo desde el comando  (s)</text>
<text transform="translate(15,187) rotate(-90)" fill="#5a6472" font-size="12.5" text-anchor="middle" class="ey">POS_ACT normalizada  (0 = abierto · 1 = final)</text>
</svg>